<svg xmlns="http://www.w3.org/2000/svg" viewBox="0 0 300 200">
  <!-- White background -->
  <rect width="300" height="200" fill="#FFFFFF"/>
  <!-- Red bottom stripe -->
  <rect x="0" y="175" width="300" height="25" fill="#B71234"/>
  <!-- Red star -->
  <polygon points="45,25 50,40 65,40 53,49 57,65 45,55 33,65 37,49 25,40 40,40" fill="#B71234"/>
  <!-- Bear silhouette (simplified) -->
  <ellipse cx="150" cy="100" rx="55" ry="35" fill="#4B3621"/>
  <ellipse cx="115" cy="85" rx="15" ry="12" fill="#4B3621"/>
  <ellipse cx="185" cy="90" rx="8" ry="5" fill="#4B3621"/>
  <rect x="110" y="125" width="12" height="20" rx="3" fill="#4B3621"/>
  <rect x="130" y="125" width="12" height="20" rx="3" fill="#4B3621"/>
  <rect x="158" y="125" width="12" height="20" rx="3" fill="#4B3621"/>
  <rect x="178" y="125" width="12" height="20" rx="3" fill="#4B3621"/>
  <!-- CALIFORNIA REPUBLIC text -->
  <text x="150" y="168" text-anchor="middle" font-family="serif" font-size="14" font-weight="bold" fill="#4B3621">CALIFORNIA REPUBLIC</text>
  <!-- Green grass strip -->
  <rect x="0" y="170" width="300" height="5" fill="#4B7A47"/>
</svg>
